<mxfile host="app.diagrams.net" modified="2022-03-03T10:05:41.755Z" agent="5.0 (Windows NT 10.0; Win64; x64) AppleWebKit/537.36 (KHTML, like Gecko) Chrome/98.0.4758.102 Safari/537.36" etag="9HmLo58MaZDpIDNgQePN" version="16.6.4" type="github" pages="3">
  <diagram id="6S4kiwlFQv_nzFeCMZdm" name="Page-1">
    <mxGraphModel dx="1038" dy="539" grid="1" gridSize="10" guides="1" tooltips="1" connect="1" arrows="1" fold="1" page="1" pageScale="1" pageWidth="827" pageHeight="1169" math="0" shadow="0">
      <root>
        <mxCell id="0" />
        <mxCell id="1" parent="0" />
        <mxCell id="XYthWrCe0z_VZGPjGsB6-1" value="&lt;b&gt;Начало&lt;/b&gt;" style="ellipse;whiteSpace=wrap;html=1;" parent="1" vertex="1">
          <mxGeometry x="330" y="20" width="120" height="80" as="geometry" />
        </mxCell>
        <mxCell id="XYthWrCe0z_VZGPjGsB6-2" value="" style="endArrow=classic;html=1;rounded=0;" parent="1" source="XYthWrCe0z_VZGPjGsB6-1" edge="1">
          <mxGeometry width="50" height="50" relative="1" as="geometry">
            <mxPoint x="390" y="120" as="sourcePoint" />
            <mxPoint x="390" y="140" as="targetPoint" />
          </mxGeometry>
        </mxCell>
        <mxCell id="XYthWrCe0z_VZGPjGsB6-3" value="ввод координат первой точки x1, y1" style="shape=parallelogram;perimeter=parallelogramPerimeter;whiteSpace=wrap;html=1;fixedSize=1;" parent="1" vertex="1">
          <mxGeometry x="270" y="140" width="220" height="60" as="geometry" />
        </mxCell>
        <mxCell id="XYthWrCe0z_VZGPjGsB6-6" value="" style="endArrow=classic;html=1;rounded=0;exitX=0.5;exitY=1;exitDx=0;exitDy=0;" parent="1" source="XYthWrCe0z_VZGPjGsB6-3" edge="1">
          <mxGeometry width="50" height="50" relative="1" as="geometry">
            <mxPoint x="380" y="210" as="sourcePoint" />
            <mxPoint x="380" y="260" as="targetPoint" />
          </mxGeometry>
        </mxCell>
        <mxCell id="XYthWrCe0z_VZGPjGsB6-7" value="ввод координат второй точки x2, y2" style="shape=parallelogram;perimeter=parallelogramPerimeter;whiteSpace=wrap;html=1;fixedSize=1;" parent="1" vertex="1">
          <mxGeometry x="250" y="260" width="230" height="60" as="geometry" />
        </mxCell>
        <mxCell id="XYthWrCe0z_VZGPjGsB6-9" value="" style="endArrow=classic;html=1;rounded=0;exitX=0.5;exitY=1;exitDx=0;exitDy=0;" parent="1" source="XYthWrCe0z_VZGPjGsB6-7" edge="1">
          <mxGeometry width="50" height="50" relative="1" as="geometry">
            <mxPoint x="390" y="290" as="sourcePoint" />
            <mxPoint x="365" y="360" as="targetPoint" />
          </mxGeometry>
        </mxCell>
        <mxCell id="XYthWrCe0z_VZGPjGsB6-10" value="k = (y1 - y2)/(x1-x2)" style="rhombus;whiteSpace=wrap;html=1;" parent="1" vertex="1">
          <mxGeometry x="270" y="360" width="190" height="80" as="geometry" />
        </mxCell>
        <mxCell id="XYthWrCe0z_VZGPjGsB6-11" value="" style="endArrow=classic;html=1;rounded=0;exitX=0.5;exitY=1;exitDx=0;exitDy=0;" parent="1" source="XYthWrCe0z_VZGPjGsB6-10" edge="1">
          <mxGeometry width="50" height="50" relative="1" as="geometry">
            <mxPoint x="220" y="550" as="sourcePoint" />
            <mxPoint x="365" y="480" as="targetPoint" />
          </mxGeometry>
        </mxCell>
        <mxCell id="XYthWrCe0z_VZGPjGsB6-12" value="b = y2 - k*x2" style="rhombus;whiteSpace=wrap;html=1;" parent="1" vertex="1">
          <mxGeometry x="290" y="480" width="150" height="80" as="geometry" />
        </mxCell>
        <mxCell id="XYthWrCe0z_VZGPjGsB6-13" value="" style="endArrow=classic;html=1;rounded=0;" parent="1" edge="1">
          <mxGeometry width="50" height="50" relative="1" as="geometry">
            <mxPoint x="364.63" y="560" as="sourcePoint" />
            <mxPoint x="364.63" y="600" as="targetPoint" />
          </mxGeometry>
        </mxCell>
        <mxCell id="XYthWrCe0z_VZGPjGsB6-14" value="вывод&lt;br&gt;k, b" style="shape=parallelogram;perimeter=parallelogramPerimeter;whiteSpace=wrap;html=1;fixedSize=1;" parent="1" vertex="1">
          <mxGeometry x="305" y="600" width="120" height="60" as="geometry" />
        </mxCell>
        <mxCell id="XYthWrCe0z_VZGPjGsB6-15" value="" style="endArrow=classic;html=1;rounded=0;exitX=0.5;exitY=1;exitDx=0;exitDy=0;" parent="1" source="XYthWrCe0z_VZGPjGsB6-14" edge="1">
          <mxGeometry width="50" height="50" relative="1" as="geometry">
            <mxPoint x="340" y="670" as="sourcePoint" />
            <mxPoint x="365" y="690" as="targetPoint" />
          </mxGeometry>
        </mxCell>
        <mxCell id="XYthWrCe0z_VZGPjGsB6-16" value="конец" style="ellipse;whiteSpace=wrap;html=1;" parent="1" vertex="1">
          <mxGeometry x="320" y="690" width="90" height="80" as="geometry" />
        </mxCell>
      </root>
    </mxGraphModel>
  </diagram>
  <diagram id="UQMex64Fj3WTeG1TEVnq" name="Page-2">
    <mxGraphModel dx="1038" dy="539" grid="1" gridSize="10" guides="1" tooltips="1" connect="1" arrows="1" fold="1" page="1" pageScale="1" pageWidth="827" pageHeight="1169" math="0" shadow="0">
      <root>
        <mxCell id="6GibrtQ0zAEiuEPDtlEp-0" />
        <mxCell id="6GibrtQ0zAEiuEPDtlEp-1" parent="6GibrtQ0zAEiuEPDtlEp-0" />
        <mxCell id="6GibrtQ0zAEiuEPDtlEp-3" value="" style="endArrow=classic;html=1;rounded=0;exitX=0.5;exitY=1;exitDx=0;exitDy=0;" edge="1" parent="6GibrtQ0zAEiuEPDtlEp-1">
          <mxGeometry width="50" height="50" relative="1" as="geometry">
            <mxPoint x="380" y="70" as="sourcePoint" />
            <mxPoint x="380" y="100" as="targetPoint" />
          </mxGeometry>
        </mxCell>
        <mxCell id="6GibrtQ0zAEiuEPDtlEp-4" value="введите три числа" style="shape=parallelogram;perimeter=parallelogramPerimeter;whiteSpace=wrap;html=1;fixedSize=1;" vertex="1" parent="6GibrtQ0zAEiuEPDtlEp-1">
          <mxGeometry x="305" y="100" width="150" height="60" as="geometry" />
        </mxCell>
        <mxCell id="6GibrtQ0zAEiuEPDtlEp-5" value="" style="endArrow=classic;html=1;rounded=0;exitX=0.46;exitY=1.037;exitDx=0;exitDy=0;exitPerimeter=0;" edge="1" parent="6GibrtQ0zAEiuEPDtlEp-1" source="6GibrtQ0zAEiuEPDtlEp-4" target="6GibrtQ0zAEiuEPDtlEp-6">
          <mxGeometry width="50" height="50" relative="1" as="geometry">
            <mxPoint x="390" y="300" as="sourcePoint" />
            <mxPoint x="374" y="240" as="targetPoint" />
          </mxGeometry>
        </mxCell>
        <mxCell id="6GibrtQ0zAEiuEPDtlEp-61" style="edgeStyle=orthogonalEdgeStyle;rounded=0;orthogonalLoop=1;jettySize=auto;html=1;exitX=1;exitY=0.5;exitDx=0;exitDy=0;entryX=0;entryY=0.5;entryDx=0;entryDy=0;" edge="1" parent="6GibrtQ0zAEiuEPDtlEp-1" source="6GibrtQ0zAEiuEPDtlEp-6" target="6GibrtQ0zAEiuEPDtlEp-37">
          <mxGeometry relative="1" as="geometry" />
        </mxCell>
        <mxCell id="6GibrtQ0zAEiuEPDtlEp-72" style="edgeStyle=orthogonalEdgeStyle;rounded=0;orthogonalLoop=1;jettySize=auto;html=1;" edge="1" parent="6GibrtQ0zAEiuEPDtlEp-1" source="6GibrtQ0zAEiuEPDtlEp-6" target="6GibrtQ0zAEiuEPDtlEp-73">
          <mxGeometry relative="1" as="geometry">
            <mxPoint x="260" y="245" as="targetPoint" />
          </mxGeometry>
        </mxCell>
        <mxCell id="6GibrtQ0zAEiuEPDtlEp-6" value="ввод a, b, c" style="shape=parallelogram;perimeter=parallelogramPerimeter;whiteSpace=wrap;html=1;fixedSize=1;" vertex="1" parent="6GibrtQ0zAEiuEPDtlEp-1">
          <mxGeometry x="305" y="210" width="125" height="70" as="geometry" />
        </mxCell>
        <mxCell id="6GibrtQ0zAEiuEPDtlEp-7" value="" style="endArrow=classic;html=1;rounded=0;" edge="1" parent="6GibrtQ0zAEiuEPDtlEp-1" target="6GibrtQ0zAEiuEPDtlEp-8">
          <mxGeometry width="50" height="50" relative="1" as="geometry">
            <mxPoint x="364" y="280" as="sourcePoint" />
            <mxPoint x="364" y="310" as="targetPoint" />
          </mxGeometry>
        </mxCell>
        <mxCell id="6GibrtQ0zAEiuEPDtlEp-20" value="да" style="edgeStyle=orthogonalEdgeStyle;rounded=0;orthogonalLoop=1;jettySize=auto;html=1;exitX=1;exitY=0.5;exitDx=0;exitDy=0;" edge="1" parent="6GibrtQ0zAEiuEPDtlEp-1" source="6GibrtQ0zAEiuEPDtlEp-8">
          <mxGeometry relative="1" as="geometry">
            <mxPoint x="440" y="400" as="targetPoint" />
          </mxGeometry>
        </mxCell>
        <mxCell id="6GibrtQ0zAEiuEPDtlEp-49" style="edgeStyle=orthogonalEdgeStyle;rounded=0;orthogonalLoop=1;jettySize=auto;html=1;entryX=0.5;entryY=0;entryDx=0;entryDy=0;" edge="1" parent="6GibrtQ0zAEiuEPDtlEp-1" source="6GibrtQ0zAEiuEPDtlEp-8" target="6GibrtQ0zAEiuEPDtlEp-51">
          <mxGeometry relative="1" as="geometry">
            <mxPoint x="280" y="410" as="targetPoint" />
            <Array as="points">
              <mxPoint x="280" y="350" />
              <mxPoint x="280" y="410" />
            </Array>
          </mxGeometry>
        </mxCell>
        <mxCell id="6GibrtQ0zAEiuEPDtlEp-50" value="нет" style="edgeLabel;html=1;align=center;verticalAlign=middle;resizable=0;points=[];" vertex="1" connectable="0" parent="6GibrtQ0zAEiuEPDtlEp-49">
          <mxGeometry x="-0.0218" y="3" relative="1" as="geometry">
            <mxPoint as="offset" />
          </mxGeometry>
        </mxCell>
        <mxCell id="6GibrtQ0zAEiuEPDtlEp-8" value="a &amp;gt; b" style="rhombus;whiteSpace=wrap;html=1;" vertex="1" parent="6GibrtQ0zAEiuEPDtlEp-1">
          <mxGeometry x="330" y="310" width="77.5" height="80" as="geometry" />
        </mxCell>
        <mxCell id="6GibrtQ0zAEiuEPDtlEp-58" value="да" style="edgeStyle=orthogonalEdgeStyle;rounded=0;orthogonalLoop=1;jettySize=auto;html=1;" edge="1" parent="6GibrtQ0zAEiuEPDtlEp-1" source="6GibrtQ0zAEiuEPDtlEp-37">
          <mxGeometry relative="1" as="geometry">
            <mxPoint x="570" y="180" as="targetPoint" />
          </mxGeometry>
        </mxCell>
        <mxCell id="6GibrtQ0zAEiuEPDtlEp-65" value="нет" style="edgeStyle=orthogonalEdgeStyle;rounded=0;orthogonalLoop=1;jettySize=auto;html=1;exitX=0.5;exitY=1;exitDx=0;exitDy=0;" edge="1" parent="6GibrtQ0zAEiuEPDtlEp-1" source="6GibrtQ0zAEiuEPDtlEp-37">
          <mxGeometry relative="1" as="geometry">
            <mxPoint x="490" y="320" as="targetPoint" />
          </mxGeometry>
        </mxCell>
        <mxCell id="6GibrtQ0zAEiuEPDtlEp-37" value="b&amp;gt;c" style="rhombus;whiteSpace=wrap;html=1;" vertex="1" parent="6GibrtQ0zAEiuEPDtlEp-1">
          <mxGeometry x="450" y="210" width="80" height="80" as="geometry" />
        </mxCell>
        <mxCell id="6GibrtQ0zAEiuEPDtlEp-45" value="да" style="edgeStyle=orthogonalEdgeStyle;rounded=0;orthogonalLoop=1;jettySize=auto;html=1;" edge="1" parent="6GibrtQ0zAEiuEPDtlEp-1" source="6GibrtQ0zAEiuEPDtlEp-39">
          <mxGeometry relative="1" as="geometry">
            <mxPoint x="520" y="490" as="targetPoint" />
          </mxGeometry>
        </mxCell>
        <mxCell id="6GibrtQ0zAEiuEPDtlEp-47" value="нет" style="edgeStyle=orthogonalEdgeStyle;rounded=0;orthogonalLoop=1;jettySize=auto;html=1;" edge="1" parent="6GibrtQ0zAEiuEPDtlEp-1" source="6GibrtQ0zAEiuEPDtlEp-39">
          <mxGeometry relative="1" as="geometry">
            <mxPoint x="370" y="490" as="targetPoint" />
          </mxGeometry>
        </mxCell>
        <mxCell id="6GibrtQ0zAEiuEPDtlEp-39" value="a&amp;gt;c" style="rhombus;whiteSpace=wrap;html=1;" vertex="1" parent="6GibrtQ0zAEiuEPDtlEp-1">
          <mxGeometry x="407.5" y="400" width="70" height="80" as="geometry" />
        </mxCell>
        <mxCell id="yY1OYULDlTFQHXvS_66c-6" style="edgeStyle=orthogonalEdgeStyle;rounded=0;orthogonalLoop=1;jettySize=auto;html=1;" edge="1" parent="6GibrtQ0zAEiuEPDtlEp-1" source="6GibrtQ0zAEiuEPDtlEp-46">
          <mxGeometry relative="1" as="geometry">
            <mxPoint x="519" y="600" as="targetPoint" />
          </mxGeometry>
        </mxCell>
        <mxCell id="6GibrtQ0zAEiuEPDtlEp-46" value="" style="shape=parallelogram;perimeter=parallelogramPerimeter;whiteSpace=wrap;html=1;fixedSize=1;" vertex="1" parent="6GibrtQ0zAEiuEPDtlEp-1">
          <mxGeometry x="478" y="490" width="82" height="50" as="geometry" />
        </mxCell>
        <mxCell id="yY1OYULDlTFQHXvS_66c-5" style="edgeStyle=orthogonalEdgeStyle;rounded=0;orthogonalLoop=1;jettySize=auto;html=1;" edge="1" parent="6GibrtQ0zAEiuEPDtlEp-1" source="6GibrtQ0zAEiuEPDtlEp-48">
          <mxGeometry relative="1" as="geometry">
            <mxPoint x="360" y="600" as="targetPoint" />
          </mxGeometry>
        </mxCell>
        <mxCell id="6GibrtQ0zAEiuEPDtlEp-48" value="вывод а" style="shape=parallelogram;perimeter=parallelogramPerimeter;whiteSpace=wrap;html=1;fixedSize=1;" vertex="1" parent="6GibrtQ0zAEiuEPDtlEp-1">
          <mxGeometry x="320" y="490" width="90" height="50" as="geometry" />
        </mxCell>
        <mxCell id="6GibrtQ0zAEiuEPDtlEp-52" value="нет" style="edgeStyle=orthogonalEdgeStyle;rounded=0;orthogonalLoop=1;jettySize=auto;html=1;" edge="1" parent="6GibrtQ0zAEiuEPDtlEp-1" source="6GibrtQ0zAEiuEPDtlEp-51">
          <mxGeometry relative="1" as="geometry">
            <mxPoint x="310" y="480" as="targetPoint" />
          </mxGeometry>
        </mxCell>
        <mxCell id="6GibrtQ0zAEiuEPDtlEp-55" value="да" style="edgeStyle=orthogonalEdgeStyle;rounded=0;orthogonalLoop=1;jettySize=auto;html=1;" edge="1" parent="6GibrtQ0zAEiuEPDtlEp-1" source="6GibrtQ0zAEiuEPDtlEp-51">
          <mxGeometry relative="1" as="geometry">
            <mxPoint x="160" y="490" as="targetPoint" />
          </mxGeometry>
        </mxCell>
        <mxCell id="6GibrtQ0zAEiuEPDtlEp-51" value="a&amp;gt;c" style="rhombus;whiteSpace=wrap;html=1;" vertex="1" parent="6GibrtQ0zAEiuEPDtlEp-1">
          <mxGeometry x="210" y="410" width="80" height="70" as="geometry" />
        </mxCell>
        <mxCell id="yY1OYULDlTFQHXvS_66c-4" style="edgeStyle=orthogonalEdgeStyle;rounded=0;orthogonalLoop=1;jettySize=auto;html=1;" edge="1" parent="6GibrtQ0zAEiuEPDtlEp-1" source="6GibrtQ0zAEiuEPDtlEp-54">
          <mxGeometry relative="1" as="geometry">
            <mxPoint x="295" y="600" as="targetPoint" />
          </mxGeometry>
        </mxCell>
        <mxCell id="6GibrtQ0zAEiuEPDtlEp-54" value="" style="shape=parallelogram;perimeter=parallelogramPerimeter;whiteSpace=wrap;html=1;fixedSize=1;" vertex="1" parent="6GibrtQ0zAEiuEPDtlEp-1">
          <mxGeometry x="260" y="480" width="70" height="40" as="geometry" />
        </mxCell>
        <mxCell id="yY1OYULDlTFQHXvS_66c-3" style="edgeStyle=orthogonalEdgeStyle;rounded=0;orthogonalLoop=1;jettySize=auto;html=1;" edge="1" parent="6GibrtQ0zAEiuEPDtlEp-1" source="6GibrtQ0zAEiuEPDtlEp-56">
          <mxGeometry relative="1" as="geometry">
            <mxPoint x="160" y="600" as="targetPoint" />
          </mxGeometry>
        </mxCell>
        <mxCell id="6GibrtQ0zAEiuEPDtlEp-56" value="вывод а" style="shape=parallelogram;perimeter=parallelogramPerimeter;whiteSpace=wrap;html=1;fixedSize=1;" vertex="1" parent="6GibrtQ0zAEiuEPDtlEp-1">
          <mxGeometry x="110" y="490" width="100" height="50" as="geometry" />
        </mxCell>
        <mxCell id="6GibrtQ0zAEiuEPDtlEp-59" value="начало" style="ellipse;whiteSpace=wrap;html=1;" vertex="1" parent="6GibrtQ0zAEiuEPDtlEp-1">
          <mxGeometry x="320" y="20" width="120" height="50" as="geometry" />
        </mxCell>
        <mxCell id="6GibrtQ0zAEiuEPDtlEp-62" style="edgeStyle=orthogonalEdgeStyle;rounded=0;orthogonalLoop=1;jettySize=auto;html=1;" edge="1" parent="6GibrtQ0zAEiuEPDtlEp-1" source="6GibrtQ0zAEiuEPDtlEp-60">
          <mxGeometry relative="1" as="geometry">
            <mxPoint x="570" y="90" as="targetPoint" />
          </mxGeometry>
        </mxCell>
        <mxCell id="6GibrtQ0zAEiuEPDtlEp-60" value="b&amp;lt;a" style="rhombus;whiteSpace=wrap;html=1;" vertex="1" parent="6GibrtQ0zAEiuEPDtlEp-1">
          <mxGeometry x="530" y="120" width="80" height="70" as="geometry" />
        </mxCell>
        <mxCell id="yY1OYULDlTFQHXvS_66c-8" style="edgeStyle=orthogonalEdgeStyle;rounded=0;orthogonalLoop=1;jettySize=auto;html=1;" edge="1" parent="6GibrtQ0zAEiuEPDtlEp-1" source="6GibrtQ0zAEiuEPDtlEp-64">
          <mxGeometry relative="1" as="geometry">
            <mxPoint x="700" y="610" as="targetPoint" />
          </mxGeometry>
        </mxCell>
        <mxCell id="6GibrtQ0zAEiuEPDtlEp-64" value="вывод b" style="shape=parallelogram;perimeter=parallelogramPerimeter;whiteSpace=wrap;html=1;fixedSize=1;" vertex="1" parent="6GibrtQ0zAEiuEPDtlEp-1">
          <mxGeometry x="540" y="50" width="80" height="40" as="geometry" />
        </mxCell>
        <mxCell id="6GibrtQ0zAEiuEPDtlEp-70" style="edgeStyle=orthogonalEdgeStyle;rounded=0;orthogonalLoop=1;jettySize=auto;html=1;" edge="1" parent="6GibrtQ0zAEiuEPDtlEp-1" source="6GibrtQ0zAEiuEPDtlEp-67">
          <mxGeometry relative="1" as="geometry">
            <mxPoint x="580" y="390" as="targetPoint" />
          </mxGeometry>
        </mxCell>
        <mxCell id="6GibrtQ0zAEiuEPDtlEp-67" value="b&amp;gt;a" style="rhombus;whiteSpace=wrap;html=1;" vertex="1" parent="6GibrtQ0zAEiuEPDtlEp-1">
          <mxGeometry x="450" y="315" width="80" height="70" as="geometry" />
        </mxCell>
        <mxCell id="yY1OYULDlTFQHXvS_66c-7" style="edgeStyle=orthogonalEdgeStyle;rounded=0;orthogonalLoop=1;jettySize=auto;html=1;" edge="1" parent="6GibrtQ0zAEiuEPDtlEp-1" source="6GibrtQ0zAEiuEPDtlEp-71">
          <mxGeometry relative="1" as="geometry">
            <mxPoint x="590" y="600" as="targetPoint" />
          </mxGeometry>
        </mxCell>
        <mxCell id="6GibrtQ0zAEiuEPDtlEp-71" value="вывод b" style="shape=parallelogram;perimeter=parallelogramPerimeter;whiteSpace=wrap;html=1;fixedSize=1;" vertex="1" parent="6GibrtQ0zAEiuEPDtlEp-1">
          <mxGeometry x="540" y="390" width="100" height="30" as="geometry" />
        </mxCell>
        <mxCell id="6GibrtQ0zAEiuEPDtlEp-75" value="да" style="edgeStyle=orthogonalEdgeStyle;rounded=0;orthogonalLoop=1;jettySize=auto;html=1;" edge="1" parent="6GibrtQ0zAEiuEPDtlEp-1" source="6GibrtQ0zAEiuEPDtlEp-73">
          <mxGeometry relative="1" as="geometry">
            <mxPoint x="240" y="300" as="targetPoint" />
          </mxGeometry>
        </mxCell>
        <mxCell id="6GibrtQ0zAEiuEPDtlEp-79" value="нет&lt;br&gt;" style="edgeStyle=orthogonalEdgeStyle;rounded=0;orthogonalLoop=1;jettySize=auto;html=1;exitX=0;exitY=0.5;exitDx=0;exitDy=0;" edge="1" parent="6GibrtQ0zAEiuEPDtlEp-1" source="6GibrtQ0zAEiuEPDtlEp-73">
          <mxGeometry relative="1" as="geometry">
            <mxPoint x="150" y="200" as="targetPoint" />
          </mxGeometry>
        </mxCell>
        <mxCell id="6GibrtQ0zAEiuEPDtlEp-73" value="c&amp;gt;a" style="rhombus;whiteSpace=wrap;html=1;" vertex="1" parent="6GibrtQ0zAEiuEPDtlEp-1">
          <mxGeometry x="200" y="205" width="80" height="65" as="geometry" />
        </mxCell>
        <mxCell id="6GibrtQ0zAEiuEPDtlEp-77" value="да" style="edgeStyle=orthogonalEdgeStyle;rounded=0;orthogonalLoop=1;jettySize=auto;html=1;exitX=0;exitY=0.5;exitDx=0;exitDy=0;" edge="1" parent="6GibrtQ0zAEiuEPDtlEp-1" source="6GibrtQ0zAEiuEPDtlEp-76" target="6GibrtQ0zAEiuEPDtlEp-78">
          <mxGeometry relative="1" as="geometry">
            <mxPoint x="170" y="370" as="targetPoint" />
          </mxGeometry>
        </mxCell>
        <mxCell id="6GibrtQ0zAEiuEPDtlEp-76" value="с&amp;lt;b" style="rhombus;whiteSpace=wrap;html=1;" vertex="1" parent="6GibrtQ0zAEiuEPDtlEp-1">
          <mxGeometry x="200" y="305" width="80" height="45" as="geometry" />
        </mxCell>
        <mxCell id="yY1OYULDlTFQHXvS_66c-1" value="" style="edgeStyle=orthogonalEdgeStyle;rounded=0;orthogonalLoop=1;jettySize=auto;html=1;" edge="1" parent="6GibrtQ0zAEiuEPDtlEp-1" source="6GibrtQ0zAEiuEPDtlEp-78" target="6GibrtQ0zAEiuEPDtlEp-56">
          <mxGeometry relative="1" as="geometry" />
        </mxCell>
        <mxCell id="yY1OYULDlTFQHXvS_66c-2" style="edgeStyle=orthogonalEdgeStyle;rounded=0;orthogonalLoop=1;jettySize=auto;html=1;" edge="1" parent="6GibrtQ0zAEiuEPDtlEp-1" source="6GibrtQ0zAEiuEPDtlEp-78">
          <mxGeometry relative="1" as="geometry">
            <mxPoint x="40" y="610" as="targetPoint" />
          </mxGeometry>
        </mxCell>
        <mxCell id="6GibrtQ0zAEiuEPDtlEp-78" value="вывод с" style="shape=parallelogram;perimeter=parallelogramPerimeter;whiteSpace=wrap;html=1;fixedSize=1;" vertex="1" parent="6GibrtQ0zAEiuEPDtlEp-1">
          <mxGeometry x="110" y="370" width="120" height="40" as="geometry" />
        </mxCell>
        <mxCell id="6GibrtQ0zAEiuEPDtlEp-81" style="edgeStyle=orthogonalEdgeStyle;rounded=0;orthogonalLoop=1;jettySize=auto;html=1;" edge="1" parent="6GibrtQ0zAEiuEPDtlEp-1" source="6GibrtQ0zAEiuEPDtlEp-80">
          <mxGeometry relative="1" as="geometry">
            <mxPoint x="70" y="220" as="targetPoint" />
          </mxGeometry>
        </mxCell>
        <mxCell id="6GibrtQ0zAEiuEPDtlEp-80" value="b&amp;lt;c" style="rhombus;whiteSpace=wrap;html=1;" vertex="1" parent="6GibrtQ0zAEiuEPDtlEp-1">
          <mxGeometry x="110" y="140" width="80" height="60" as="geometry" />
        </mxCell>
        <mxCell id="yY1OYULDlTFQHXvS_66c-0" style="edgeStyle=orthogonalEdgeStyle;rounded=0;orthogonalLoop=1;jettySize=auto;html=1;" edge="1" parent="6GibrtQ0zAEiuEPDtlEp-1" source="6GibrtQ0zAEiuEPDtlEp-83">
          <mxGeometry relative="1" as="geometry">
            <mxPoint x="100" y="600" as="targetPoint" />
          </mxGeometry>
        </mxCell>
        <mxCell id="6GibrtQ0zAEiuEPDtlEp-83" value="вывод с" style="shape=parallelogram;perimeter=parallelogramPerimeter;whiteSpace=wrap;html=1;fixedSize=1;" vertex="1" parent="6GibrtQ0zAEiuEPDtlEp-1">
          <mxGeometry x="20" y="220" width="80" height="20" as="geometry" />
        </mxCell>
        <mxCell id="yY1OYULDlTFQHXvS_66c-9" value="" style="endArrow=none;html=1;rounded=0;" edge="1" parent="6GibrtQ0zAEiuEPDtlEp-1">
          <mxGeometry width="50" height="50" relative="1" as="geometry">
            <mxPoint x="40" y="600" as="sourcePoint" />
            <mxPoint x="700" y="600" as="targetPoint" />
          </mxGeometry>
        </mxCell>
        <mxCell id="yY1OYULDlTFQHXvS_66c-10" value="" style="endArrow=classic;html=1;rounded=0;" edge="1" parent="6GibrtQ0zAEiuEPDtlEp-1" target="yY1OYULDlTFQHXvS_66c-11">
          <mxGeometry width="50" height="50" relative="1" as="geometry">
            <mxPoint x="360" y="610" as="sourcePoint" />
            <mxPoint x="360" y="670" as="targetPoint" />
          </mxGeometry>
        </mxCell>
        <mxCell id="yY1OYULDlTFQHXvS_66c-11" value="конец" style="ellipse;whiteSpace=wrap;html=1;" vertex="1" parent="6GibrtQ0zAEiuEPDtlEp-1">
          <mxGeometry x="300" y="630" width="120" height="80" as="geometry" />
        </mxCell>
      </root>
    </mxGraphModel>
  </diagram>
  <diagram id="h7PmquG8naFHgSGiFL7L" name="Page-3">
    <mxGraphModel dx="1038" dy="539" grid="1" gridSize="10" guides="1" tooltips="1" connect="1" arrows="1" fold="1" page="1" pageScale="1" pageWidth="827" pageHeight="1169" math="0" shadow="0">
      <root>
        <mxCell id="VBRUCkMvxGbAIYCwCKXt-0" />
        <mxCell id="VBRUCkMvxGbAIYCwCKXt-1" parent="VBRUCkMvxGbAIYCwCKXt-0" />
        <mxCell id="oqmZmOhyKqYzXwYUcHgB-0" style="edgeStyle=orthogonalEdgeStyle;rounded=0;orthogonalLoop=1;jettySize=auto;html=1;" edge="1" parent="VBRUCkMvxGbAIYCwCKXt-1" source="VBRUCkMvxGbAIYCwCKXt-2">
          <mxGeometry relative="1" as="geometry">
            <mxPoint x="400" y="120" as="targetPoint" />
          </mxGeometry>
        </mxCell>
        <mxCell id="VBRUCkMvxGbAIYCwCKXt-2" value="начало" style="ellipse;whiteSpace=wrap;html=1;" vertex="1" parent="VBRUCkMvxGbAIYCwCKXt-1">
          <mxGeometry x="340" y="10" width="120" height="50" as="geometry" />
        </mxCell>
        <mxCell id="oqmZmOhyKqYzXwYUcHgB-2" style="edgeStyle=orthogonalEdgeStyle;rounded=0;orthogonalLoop=1;jettySize=auto;html=1;" edge="1" parent="VBRUCkMvxGbAIYCwCKXt-1" source="oqmZmOhyKqYzXwYUcHgB-1">
          <mxGeometry relative="1" as="geometry">
            <mxPoint x="400" y="200" as="targetPoint" />
          </mxGeometry>
        </mxCell>
        <mxCell id="oqmZmOhyKqYzXwYUcHgB-1" value="введите год" style="shape=parallelogram;perimeter=parallelogramPerimeter;whiteSpace=wrap;html=1;fixedSize=1;" vertex="1" parent="VBRUCkMvxGbAIYCwCKXt-1">
          <mxGeometry x="340" y="130" width="120" height="40" as="geometry" />
        </mxCell>
        <mxCell id="oqmZmOhyKqYzXwYUcHgB-5" value="да" style="edgeStyle=orthogonalEdgeStyle;rounded=0;orthogonalLoop=1;jettySize=auto;html=1;" edge="1" parent="VBRUCkMvxGbAIYCwCKXt-1" source="oqmZmOhyKqYzXwYUcHgB-4">
          <mxGeometry relative="1" as="geometry">
            <mxPoint x="300" y="330" as="targetPoint" />
          </mxGeometry>
        </mxCell>
        <mxCell id="oqmZmOhyKqYzXwYUcHgB-7" value="нет&lt;br&gt;" style="edgeStyle=orthogonalEdgeStyle;rounded=0;orthogonalLoop=1;jettySize=auto;html=1;" edge="1" parent="VBRUCkMvxGbAIYCwCKXt-1" source="oqmZmOhyKqYzXwYUcHgB-4">
          <mxGeometry relative="1" as="geometry">
            <mxPoint x="510" y="340" as="targetPoint" />
          </mxGeometry>
        </mxCell>
        <mxCell id="oqmZmOhyKqYzXwYUcHgB-4" value="год / 4 = 0" style="rhombus;whiteSpace=wrap;html=1;" vertex="1" parent="VBRUCkMvxGbAIYCwCKXt-1">
          <mxGeometry x="355" y="200" width="90" height="80" as="geometry" />
        </mxCell>
        <mxCell id="oqmZmOhyKqYzXwYUcHgB-9" style="edgeStyle=orthogonalEdgeStyle;rounded=0;orthogonalLoop=1;jettySize=auto;html=1;" edge="1" parent="VBRUCkMvxGbAIYCwCKXt-1" source="oqmZmOhyKqYzXwYUcHgB-6">
          <mxGeometry relative="1" as="geometry">
            <mxPoint x="410" y="480" as="targetPoint" />
          </mxGeometry>
        </mxCell>
        <mxCell id="oqmZmOhyKqYzXwYUcHgB-6" value="год високосный&amp;nbsp;" style="shape=parallelogram;perimeter=parallelogramPerimeter;whiteSpace=wrap;html=1;fixedSize=1;" vertex="1" parent="VBRUCkMvxGbAIYCwCKXt-1">
          <mxGeometry x="250" y="330" width="120" height="60" as="geometry" />
        </mxCell>
        <mxCell id="oqmZmOhyKqYzXwYUcHgB-10" style="edgeStyle=orthogonalEdgeStyle;rounded=0;orthogonalLoop=1;jettySize=auto;html=1;" edge="1" parent="VBRUCkMvxGbAIYCwCKXt-1" source="oqmZmOhyKqYzXwYUcHgB-8">
          <mxGeometry relative="1" as="geometry">
            <mxPoint x="430" y="480" as="targetPoint" />
          </mxGeometry>
        </mxCell>
        <mxCell id="oqmZmOhyKqYzXwYUcHgB-8" value="год не високосный" style="shape=parallelogram;perimeter=parallelogramPerimeter;whiteSpace=wrap;html=1;fixedSize=1;" vertex="1" parent="VBRUCkMvxGbAIYCwCKXt-1">
          <mxGeometry x="440" y="340" width="125" height="60" as="geometry" />
        </mxCell>
        <mxCell id="oqmZmOhyKqYzXwYUcHgB-11" value="конец" style="ellipse;whiteSpace=wrap;html=1;" vertex="1" parent="VBRUCkMvxGbAIYCwCKXt-1">
          <mxGeometry x="370" y="480" width="120" height="80" as="geometry" />
        </mxCell>
      </root>
    </mxGraphModel>
  </diagram>
</mxfile>
